<svg xmlns:svg="http://www.w3.org/2000/svg" xmlns="http://www.w3.org/2000/svg" version="1.1" width="100%" height="100%" viewBox="0 0 355 100" id="svg2">
  <path d="m72.78 83.956c-6.379545-5.833323-9.819773-13.420239-9.835-21.92-0.752 0.124-1.539 0.208-2.389 0.222-4.258-0.067-7.301-1.504-9.129-4.321-1.828-2.812-2.719-6.621-2.672-11.429-0.047-4.836 0.844-8.657 2.672-11.461 1.828-2.797 4.871-4.227 9.129-4.286 4.23 0.059 7.258 1.489 9.082 4.286 1.122 1.725 1.888 3.837 2.303 6.331 5.154445-4.852508 11.91633-7.630671 18.934-7.873C85.324 14.714 67.95 1 47.361 1 22.303 1 1.986 21.316 1.986 46.375c0 32.079914 28.023305 50.726 60.012 50.726-2.922-1.828-5.504-3.793-7.793-5.867 6.808-1.03 13.118-3.573 18.58-7.273-0.002-0.002-0.004-0.003-0.005-0.005zm-28.723-27.093 0 4.777-22.286 0 0-4.25 10.438-9.039c1.945-1.629 3.383-3.109 4.32-4.445 0.93-1.328 1.395-2.715 1.387-4.156 0-1.34-0.359-2.422-1.074-3.246-0.719-0.825-1.781-1.25-3.184-1.274-1.504 0.004-2.691 0.473-3.566 1.399-0.879 0.933-1.387 2.308-1.523 4.129l-6.137 0c0.172-3.102 1.281-5.543 3.324-7.321 2.043-1.777 4.766-2.683 8.168-2.722 3.371 0.043 5.949 0.875 7.734 2.496 1.785 1.625 2.688 3.804 2.703 6.539 0.004 1.469-0.254 2.797-0.77 3.98-0.52 1.192-1.332 2.383-2.441 3.582-1.109 1.203-2.555 2.559-4.332 4.067l-6.363 5.484zM65.908 46.508 65.908 46.508c0.004-3.844-0.426-6.684-1.293-8.512-0.871-1.828-2.223-2.735-4.059-2.723-1.859-0.012-3.227 0.895-4.102 2.723-0.875 1.828-1.309 4.668-1.301 8.512-0.008 3.812 0.426 6.64 1.301 8.484 0.875 1.848 2.242 2.762 4.102 2.75 1.184 0.008 2.162-0.375 2.943-1.139 0.564921-2.449358 1.392787-4.836663 2.279-6.803 0.084-1.003 0.131-2.093 0.13-3.292zM253.533 50.648v-7.82h-2.301v7.82h2.301zm-0.613-8.41 2.023-1.789h-2.055l-1.23 1.789h1.262zm-4.492 2.113h1.656v-1.465h-1.656v-1.968h-2.305v1.968h-1.188v1.465h1.188v3.594c-0.004 0.223 0 0.426 0.004 0.613 0 0.192 0.008 0.383 0.027 0.578 0.027 0.571 0.215 1 0.566 1.282 0.348 0.281 0.945 0.418 1.793 0.422 0.246-0.004 0.488-0.016 0.723-0.036 0.23-0.019 0.465-0.046 0.703-0.082v-1.468c-0.574 0.047-0.965 0.007-1.168-0.121-0.211-0.122-0.32-0.375-0.332-0.758-0.008-0.102-0.012-0.215-0.012-0.344-0.004-0.125-0.004-0.254 0-0.391v-3.289zm-10.84 3.891c0.113 0.883 0.488 1.539 1.125 1.969 0.637 0.429 1.461 0.64 2.473 0.64 0.938 0 1.719-0.191 2.344-0.582 0.621-0.39 0.941-0.992 0.969-1.808-0.012-0.719-0.234-1.27-0.672-1.645-0.441-0.375-1.043-0.652-1.805-0.836-0.691-0.168-1.172-0.34-1.438-0.519-0.273-0.172-0.398-0.391-0.383-0.653 0-0.207 0.07-0.379 0.215-0.515 0.141-0.129 0.336-0.199 0.59-0.207 0.281 0.004 0.512 0.093 0.688 0.265 0.168 0.176 0.285 0.426 0.355 0.75h2.273c-0.102-0.722-0.414-1.312-0.945-1.773-0.535-0.453-1.277-0.692-2.223-0.707-0.996 0.008-1.785 0.23-2.367 0.66-0.582 0.438-0.879 1.039-0.891 1.805 0.008 0.664 0.227 1.179 0.66 1.547 0.43 0.375 1.02 0.644 1.762 0.816 0.68 0.156 1.164 0.328 1.457 0.508 0.285 0.183 0.426 0.41 0.422 0.679-0.012 0.254-0.109 0.438-0.293 0.559-0.188 0.121-0.422 0.18-0.707 0.176-0.328 0-0.613-0.094-0.852-0.289-0.238-0.188-0.398-0.469-0.484-0.84h-2.273zm-4.793 1.027c-0.559 0-0.988-0.218-1.293-0.656-0.309-0.434-0.465-1.062-0.469-1.883 0.004-0.816 0.16-1.441 0.469-1.871 0.305-0.43 0.734-0.648 1.293-0.656 0.547 0.008 0.973 0.226 1.281 0.656 0.305 0.43 0.461 1.055 0.469 1.871-0.008 0.821-0.164 1.449-0.469 1.883-0.308 0.438-0.734 0.656-1.281 0.656zm0-6.648c-1.309 0.019-2.32 0.402-3.035 1.14-0.715 0.747-1.078 1.735-1.086 2.969 0.008 1.239 0.371 2.231 1.086 2.977 0.715 0.746 1.727 1.125 3.035 1.144 1.301-0.019 2.313-0.398 3.031-1.144 0.718-0.746 1.082-1.738 1.094-2.977-0.012-1.234-0.375-2.222-1.094-2.969-0.719-0.738-1.73-1.121-3.031-1.14zm-10.594 1.453V42.828H219.9v7.82h2.301v-3.625c0.008-0.988 0.16-1.707 0.453-2.156 0.289-0.445 0.664-0.668 1.133-0.664 0.445 0.008 0.785 0.125 1.012 0.351 0.227 0.227 0.352 0.543 0.383 0.942 0.012 0.203 0.023 0.394 0.027 0.582 0 0.187 0 0.355 0.004 0.504v4.066h2.301V46.23c0-0.312-0.004-0.582-0.012-0.812-0.016-0.231-0.035-0.446-0.059-0.641-0.094-0.688-0.371-1.215-0.84-1.59-0.469-0.367-1.113-0.558-1.934-0.566-0.367 0-0.699 0.043-0.988 0.121-0.297 0.082-0.574 0.207-0.832 0.379l-0.648 0.953zM212.6 46.64c0.012-0.882 0.191-1.511 0.535-1.89 0.344-0.371 0.785-0.555 1.332-0.547 0.547 0.012 0.988 0.238 1.324 0.68 0.328 0.445 0.5 1.058 0.508 1.832-0.008 0.855-0.188 1.492-0.535 1.918-0.348 0.425-0.805 0.64-1.371 0.636-0.465 0.016-0.875-0.152-1.227-0.504-0.359-0.343-0.547-0.933-0.566-1.769V46.64zm0-2.64v-4.137h-2.301v10.785h2.301v-1.027l0.516 0.82c0.207 0.133 0.48 0.231 0.816 0.301 0.336 0.07 0.668 0.105 1.004 0.109 0.676-0.004 1.297-0.16 1.859-0.48 0.559-0.32 1.008-0.801 1.348-1.438 0.336-0.632 0.508-1.422 0.52-2.363-0.016-1.172-0.324-2.117-0.926-2.84-0.609-0.715-1.453-1.086-2.535-1.109-0.406 0-0.785 0.047-1.141 0.133-0.355 0.09-0.648 0.215-0.871 0.382L212.6 44zm-7.664 5.269c-0.559 0-0.988-0.218-1.293-0.656-0.309-0.434-0.465-1.062-0.469-1.883 0.004-0.816 0.16-1.441 0.469-1.871 0.305-0.43 0.734-0.648 1.293-0.656 0.547 0.008 0.973 0.226 1.281 0.656 0.305 0.43 0.461 1.055 0.469 1.871-0.008 0.821-0.164 1.449-0.469 1.883-0.309 0.438-0.735 0.656-1.281 0.656zm0-6.648c-1.309 0.019-2.32 0.402-3.035 1.14-0.715 0.747-1.078 1.735-1.086 2.969 0.008 1.239 0.371 2.231 1.086 2.977 0.715 0.746 1.727 1.125 3.035 1.144 1.301-0.019 2.313-0.398 3.031-1.144 0.718-0.746 1.082-1.738 1.094-2.977-0.012-1.234-0.375-2.222-1.094-2.969-0.719-0.738-1.731-1.121-3.031-1.14zm-11.719 5.621c0.113 0.883 0.488 1.539 1.125 1.969 0.637 0.429 1.461 0.64 2.473 0.64 0.938 0 1.719-0.191 2.344-0.582 0.621-0.39 0.941-0.992 0.969-1.808-0.012-0.719-0.234-1.27-0.672-1.645-0.441-0.375-1.043-0.652-1.805-0.836-0.691-0.168-1.172-0.34-1.438-0.519-0.273-0.172-0.398-0.391-0.383-0.653 0-0.207 0.07-0.379 0.215-0.515 0.141-0.129 0.336-0.199 0.59-0.207 0.281 0.004 0.512 0.093 0.688 0.265 0.168 0.176 0.285 0.426 0.355 0.75h2.273c-0.102-0.722-0.414-1.312-0.945-1.773-0.535-0.453-1.277-0.692-2.223-0.707-0.996 0.008-1.785 0.23-2.367 0.66-0.582 0.438-0.879 1.039-0.891 1.805 0.008 0.664 0.227 1.179 0.66 1.547 0.43 0.375 1.02 0.644 1.762 0.816 0.68 0.156 1.164 0.328 1.457 0.508 0.285 0.183 0.426 0.41 0.422 0.679-0.012 0.254-0.109 0.438-0.293 0.559-0.188 0.121-0.422 0.18-0.707 0.176-0.328 0-0.613-0.094-0.852-0.289-0.238-0.188-0.398-0.469-0.484-0.84h-2.273zm-4.789 1.027c-0.559 0-0.988-0.218-1.293-0.656-0.309-0.434-0.465-1.062-0.469-1.883 0.004-0.816 0.16-1.441 0.469-1.871 0.305-0.43 0.734-0.648 1.293-0.656 0.547 0.008 0.973 0.226 1.281 0.656 0.305 0.43 0.461 1.055 0.469 1.871-0.008 0.821-0.164 1.449-0.469 1.883-0.309 0.438-0.734 0.656-1.281 0.656zm0-6.648c-1.309 0.019-2.32 0.402-3.035 1.14-0.715 0.747-1.078 1.735-1.086 2.969 0.008 1.239 0.371 2.231 1.086 2.977 0.715 0.746 1.727 1.125 3.035 1.144 1.301-0.019 2.313-0.398 3.031-1.144 0.718-0.746 1.082-1.738 1.094-2.977-0.012-1.234-0.375-2.222-1.094-2.969-0.719-0.738-1.73-1.121-3.031-1.14zm-9.164 1.73h1.656v-1.465h-1.656v-1.968h-2.305v1.968h-1.188v1.465h1.188v3.594c-0.004 0.223 0 0.426 0.004 0.613 0 0.192 0.008 0.383 0.027 0.578 0.027 0.571 0.215 1 0.566 1.282 0.348 0.281 0.945 0.418 1.793 0.422 0.246-0.004 0.488-0.016 0.723-0.036 0.23-0.019 0.465-0.046 0.703-0.082v-1.468c-0.574 0.047-0.965 0.007-1.168-0.121-0.211-0.122-0.32-0.375-0.332-0.758-0.008-0.102-0.012-0.215-0.012-0.344-0.004-0.125-0.004-0.254 0-0.391v-3.289zm-9.512 1.528c0.098-0.578 0.281-1 0.555-1.274 0.27-0.265 0.613-0.402 1.031-0.402 0.426 0.004 0.766 0.148 1.02 0.426 0.25 0.285 0.41 0.699 0.48 1.25h-3.086zm3.07 2.215c-0.07 0.371-0.234 0.66-0.488 0.863-0.258 0.207-0.59 0.312-0.996 0.312-0.441 0.016-0.809-0.121-1.105-0.406-0.297-0.285-0.48-0.797-0.551-1.531h5.5c0.027-0.281 0.043-0.524 0.047-0.735-0.004-0.703-0.148-1.355-0.43-1.957-0.289-0.593-0.711-1.078-1.27-1.449-0.563-0.367-1.258-0.558-2.086-0.57-0.832 0.008-1.551 0.191-2.152 0.551-0.609 0.359-1.074 0.851-1.402 1.472-0.328 0.621-0.496 1.325-0.496 2.114 0.004 0.921 0.18 1.687 0.523 2.289 0.34 0.609 0.805 1.063 1.395 1.359 0.582 0.301 1.242 0.445 1.984 0.445 0.961-0.004 1.781-0.234 2.453-0.699 0.672-0.465 1.121-1.152 1.348-2.058h-2.274zm-8.472-0.219c-0.094 0.461-0.27 0.804-0.52 1.039-0.258 0.238-0.563 0.359-0.918 0.355-0.488 0.008-0.871-0.199-1.152-0.621-0.281-0.418-0.426-1.082-0.434-1.992 0.004-0.824 0.145-1.441 0.43-1.848 0.277-0.402 0.664-0.605 1.156-0.605 0.383 0 0.703 0.121 0.957 0.355 0.254 0.243 0.422 0.629 0.512 1.161l2.246-0.004c-0.07-0.891-0.422-1.621-1.055-2.2-0.637-0.57-1.504-0.871-2.602-0.894-0.75 0.004-1.426 0.168-2.023 0.488-0.605 0.324-1.082 0.797-1.438 1.418-0.355 0.621-0.539 1.379-0.543 2.277 0.02 1.332 0.383 2.34 1.09 3.02 0.703 0.684 1.613 1.023 2.723 1.027 1.031-0.004 1.887-0.25 2.57-0.75 0.68-0.496 1.105-1.238 1.277-2.226h-2.276zm-8.926-0.074c-0.016 0.484-0.156 0.851-0.418 1.097-0.266 0.25-0.574 0.375-0.93 0.371-0.32 0.004-0.578-0.074-0.766-0.226-0.195-0.149-0.293-0.371-0.293-0.668 0.008-0.453 0.23-0.774 0.664-0.961 0.43-0.188 1.012-0.254 1.742-0.199v0.586zm0.191 2.847h2.246c-0.059-0.422-0.098-0.785-0.117-1.094-0.023-0.3-0.035-0.597-0.031-0.886v-2.379c-0.004-0.227-0.008-0.445-0.012-0.66-0.012-0.215-0.023-0.414-0.031-0.602-0.047-0.707-0.316-1.285-0.813-1.726-0.5-0.438-1.32-0.665-2.461-0.68-0.98 0.008-1.789 0.254-2.43 0.73-0.645 0.485-0.988 1.176-1.031 2.075h2.199c0.023-0.391 0.137-0.692 0.336-0.903 0.195-0.207 0.477-0.316 0.84-0.32 0.344 0.008 0.605 0.094 0.785 0.254 0.18 0.16 0.277 0.359 0.301 0.601 0.008 0.133 0.016 0.254 0.023 0.36 0 0.113 0.004 0.218 0.004 0.316v0.129h-0.496c-1.391 0.012-2.445 0.25-3.172 0.715-0.727 0.469-1.094 1.133-1.102 1.988 0.023 0.746 0.277 1.313 0.762 1.699 0.484 0.391 1.066 0.582 1.746 0.586 0.359 0 0.703-0.043 1.031-0.125 0.324-0.086 0.625-0.211 0.91-0.386l0.352-0.836 0.161 1.144zm-5.383-7.82h-2.496l-1.789 6.058-1.805-6.058h-2.555l3.066 7.82h2.523l3.056-7.82zm-15.929 6.016v-6.532h1.043c0.207 0.004 0.387 0.008 0.547 0.012 0.152 0.008 0.313 0.02 0.48 0.031 0.719 0.086 1.293 0.387 1.715 0.91 0.422 0.524 0.637 1.266 0.648 2.219-0.012 0.985-0.23 1.762-0.656 2.336-0.43 0.578-1.004 0.91-1.723 0.996-0.168 0.016-0.328 0.024-0.48 0.024-0.16 0.004-0.344 0.004-0.547 0.004h-1.027zm-2.301-8.321v10.125h3.621c0.258 0 0.477 0 0.656-0.008 0.176 0 0.391-0.019 0.637-0.05 0.789-0.094 1.5-0.348 2.141-0.762 0.633-0.414 1.141-0.984 1.52-1.715 0.375-0.73 0.566-1.617 0.578-2.66-0.012-1.035-0.203-1.899-0.574-2.594-0.375-0.688-0.879-1.219-1.512-1.59-0.637-0.371-1.348-0.601-2.137-0.687-0.246-0.028-0.457-0.043-0.637-0.051-0.18-0.004-0.398-0.008-0.656-0.008h-3.637zM247.744 61.172h-2.496l-1.789 6.058-1.805-6.058H239.1l3.066 7.82h2.523l3.055-7.82zm-11.805 4.972c-0.016 0.485-0.156 0.852-0.418 1.098-0.266 0.25-0.574 0.375-0.93 0.371-0.32 0.004-0.578-0.074-0.766-0.227-0.195-0.148-0.293-0.371-0.293-0.667 0.008-0.454 0.23-0.774 0.664-0.961 0.43-0.188 1.012-0.254 1.742-0.2v0.586zm0.192 2.848h2.246c-0.059-0.422-0.098-0.785-0.117-1.094-0.023-0.301-0.035-0.597-0.031-0.887v-2.378c-0.004-0.227-0.008-0.446-0.012-0.661-0.012-0.214-0.023-0.414-0.031-0.601-0.047-0.707-0.316-1.285-0.813-1.727-0.5-0.437-1.32-0.664-2.461-0.679-0.98 0.007-1.789 0.254-2.43 0.73-0.645 0.484-0.988 1.176-1.031 2.074h2.199c0.023-0.39 0.137-0.691 0.336-0.902 0.195-0.207 0.477-0.316 0.84-0.32 0.344 0.007 0.605 0.093 0.785 0.254 0.18 0.16 0.277 0.359 0.301 0.601 0.008 0.133 0.016 0.254 0.023 0.359 0 0.114 0.004 0.219 0.004 0.317v0.129h-0.496c-1.391 0.012-2.445 0.25-3.172 0.715-0.727 0.468-1.094 1.132-1.102 1.988 0.023 0.746 0.277 1.312 0.762 1.699 0.484 0.391 1.066 0.582 1.746 0.586 0.359 0 0.703-0.043 1.031-0.125 0.324-0.086 0.625-0.211 0.91-0.387l0.352-0.836 0.161 1.145zm-7.367-6.297h1.656V61.23h-1.656v-1.969h-2.305v1.969h-1.188v1.465h1.188v3.594c-0.004 0.222 0 0.426 0.004 0.613 0 0.192 0.008 0.383 0.027 0.578 0.027 0.571 0.215 1 0.566 1.281 0.348 0.282 0.945 0.418 1.793 0.422 0.246-0.004 0.488-0.015 0.723-0.035 0.23-0.019 0.465-0.047 0.703-0.082v-1.469c-0.574 0.047-0.965 0.008-1.168-0.121-0.211-0.121-0.32-0.375-0.332-0.757-0.008-0.102-0.012-0.215-0.012-0.344-0.004-0.125-0.004-0.254 0-0.391v-3.289zm-10.84 3.891c0.113 0.883 0.488 1.539 1.125 1.968 0.637 0.43 1.461 0.641 2.473 0.641 0.938 0 1.719-0.191 2.344-0.582 0.621-0.391 0.941-0.992 0.969-1.809-0.012-0.718-0.234-1.269-0.672-1.644-0.441-0.375-1.043-0.652-1.805-0.836-0.691-0.168-1.172-0.34-1.438-0.52-0.273-0.171-0.398-0.39-0.383-0.652 0-0.207 0.07-0.379 0.215-0.516 0.141-0.128 0.336-0.199 0.59-0.207 0.281 0.004 0.512 0.094 0.688 0.266 0.168 0.176 0.285 0.426 0.355 0.75h2.273c-0.102-0.723-0.414-1.312-0.945-1.773-0.535-0.453-1.277-0.692-2.223-0.707-0.996 0.007-1.785 0.23-2.367 0.66-0.582 0.437-0.879 1.039-0.891 1.804 0.008 0.665 0.227 1.18 0.66 1.547 0.43 0.375 1.02 0.645 1.762 0.817 0.68 0.156 1.164 0.328 1.457 0.508 0.285 0.183 0.426 0.41 0.422 0.679-0.012 0.254-0.109 0.438-0.293 0.559-0.188 0.121-0.422 0.18-0.707 0.176-0.328 0-0.613-0.094-0.852-0.289-0.238-0.188-0.398-0.469-0.484-0.84h-2.273zm-3.481-1.41c-0.016 0.89-0.199 1.519-0.543 1.89-0.352 0.379-0.793 0.563-1.324 0.547-0.555-0.004-0.996-0.23-1.324-0.676-0.336-0.441-0.504-1.054-0.512-1.836 0.008-0.851 0.184-1.488 0.535-1.914 0.344-0.426 0.805-0.64 1.375-0.64 0.453-0.008 0.859 0.16 1.219 0.504 0.359 0.347 0.551 0.933 0.574 1.757v0.368zm2.301-6.969h-2.301v3.988l-0.516-0.82c-0.211-0.125-0.484-0.223-0.816-0.297-0.34-0.07-0.676-0.109-1.004-0.113-0.684 0-1.305 0.164-1.863 0.484-0.563 0.328-1.012 0.805-1.348 1.434-0.34 0.636-0.512 1.421-0.516 2.351 0.008 1.184 0.316 2.133 0.922 2.852 0.602 0.722 1.449 1.09 2.539 1.109 0.402-0.004 0.781-0.047 1.137-0.129 0.355-0.086 0.645-0.211 0.875-0.383l0.59-0.863v1.172h2.301V58.207zm-14.629 6.015c0.098-0.578 0.281-1 0.555-1.273 0.27-0.266 0.613-0.402 1.031-0.402 0.426 0.004 0.766 0.148 1.02 0.425 0.25 0.286 0.41 0.7 0.48 1.25h-3.086zm3.071 2.215c-0.07 0.371-0.234 0.66-0.488 0.864-0.258 0.207-0.59 0.312-0.996 0.312-0.441 0.016-0.809-0.121-1.105-0.406-0.296-0.285-0.48-0.797-0.551-1.531h5.5c0.027-0.282 0.043-0.524 0.047-0.735-0.004-0.703-0.148-1.355-0.43-1.957-0.289-0.594-0.711-1.078-1.27-1.449-0.563-0.367-1.258-0.559-2.086-0.57-0.832 0.007-1.551 0.191-2.152 0.55-0.609 0.36-1.074 0.852-1.402 1.473-0.328 0.621-0.496 1.324-0.496 2.113 0.004 0.922 0.18 1.688 0.523 2.289 0.34 0.61 0.805 1.063 1.395 1.36 0.582 0.301 1.242 0.445 1.984 0.445 0.961-0.004 1.781-0.234 2.453-0.699 0.672-0.465 1.121-1.152 1.348-2.059h-2.274zm-8.493-3.769v-1.496h-2.301v7.82h2.301v-3.273c-0.008-1.09 0.199-1.852 0.617-2.29 0.414-0.429 1.074-0.613 1.98-0.543v-1.863c-0.086-0.015-0.176-0.027-0.266-0.039-0.094-0.012-0.199-0.02-0.32-0.02-0.234 0-0.48 0.054-0.734 0.156-0.258 0.105-0.488 0.258-0.688 0.461l-0.589 1.087zm-1.07-2.086h1.863l0.926-1.789h-1.367l-0.484 1.07-0.48-1.07h-1.379l0.921 1.789zm-8.531 4.402c0.012-0.883 0.191-1.512 0.535-1.89 0.344-0.372 0.785-0.555 1.332-0.547 0.547 0.011 0.988 0.238 1.324 0.679 0.328 0.446 0.5 1.059 0.508 1.832-0.008 0.856-0.188 1.493-0.535 1.918-0.348 0.426-0.805 0.641-1.371 0.637-0.465 0.016-0.875-0.152-1.227-0.504-0.359-0.344-0.547-0.933-0.566-1.77v-0.355zm0-2.64v-1.172h-2.301v10.695h2.301v-3.902l0.516 0.82c0.207 0.133 0.48 0.23 0.816 0.301 0.336 0.07 0.668 0.105 1.004 0.109 0.676-0.004 1.297-0.16 1.859-0.48 0.559-0.321 1.008-0.801 1.348-1.438 0.336-0.633 0.508-1.422 0.52-2.363-0.016-1.172-0.324-2.117-0.926-2.84-0.609-0.715-1.453-1.086-2.535-1.109-0.406 0-0.785 0.046-1.141 0.132-0.355 0.09-0.648 0.215-0.871 0.383l-0.59 0.864zm-7.828 0.351h1.656V61.23h-1.656v-1.969h-2.305v1.969h-1.188v1.465h1.188v3.594c-0.004 0.222 0 0.426 0.004 0.613 0 0.192 0.008 0.383 0.027 0.578 0.027 0.571 0.215 1 0.566 1.281 0.348 0.282 0.945 0.418 1.793 0.422 0.246-0.004 0.488-0.015 0.723-0.035 0.23-0.019 0.465-0.047 0.703-0.082v-1.469c-0.574 0.047-0.965 0.008-1.168-0.121-0.211-0.121-0.32-0.375-0.332-0.757-0.008-0.102-0.012-0.215-0.012-0.344-0.004-0.125-0.004-0.254 0-0.391v-3.289zm-9.512 1.527c0.098-0.578 0.281-1 0.555-1.273 0.27-0.266 0.613-0.402 1.031-0.402 0.426 0.004 0.766 0.148 1.02 0.425 0.25 0.286 0.41 0.7 0.48 1.25h-3.086zm3.07 2.215c-0.07 0.371-0.234 0.66-0.488 0.864-0.258 0.207-0.59 0.312-0.996 0.312-0.441 0.016-0.809-0.121-1.105-0.406-0.296-0.285-0.48-0.797-0.551-1.531h5.5c0.027-0.282 0.043-0.524 0.047-0.735-0.004-0.703-0.148-1.355-0.43-1.957-0.289-0.594-0.711-1.078-1.27-1.449-0.563-0.367-1.258-0.559-2.086-0.57-0.832 0.007-1.551 0.191-2.152 0.55-0.609 0.36-1.074 0.852-1.402 1.473-0.328 0.621-0.496 1.324-0.496 2.113 0.004 0.922 0.18 1.688 0.523 2.289 0.34 0.61 0.805 1.063 1.395 1.36 0.582 0.301 1.242 0.445 1.984 0.445 0.961-0.004 1.781-0.234 2.453-0.699 0.672-0.465 1.121-1.152 1.348-2.059h-2.274zm-8.472-0.218c-0.094 0.46-0.27 0.804-0.52 1.039-0.258 0.238-0.563 0.359-0.918 0.355-0.488 0.008-0.871-0.199-1.152-0.621-0.281-0.418-0.426-1.082-0.434-1.992 0.004-0.824 0.145-1.442 0.43-1.848 0.277-0.402 0.664-0.605 1.156-0.605 0.383 0 0.703 0.121 0.957 0.355 0.254 0.242 0.422 0.629 0.512 1.16l2.246-0.004c-0.07-0.89-0.422-1.621-1.055-2.199-0.637-0.57-1.504-0.871-2.602-0.895-0.75 0.004-1.426 0.168-2.023 0.488-0.605 0.324-1.082 0.797-1.438 1.418-0.356 0.621-0.539 1.379-0.543 2.277 0.02 1.332 0.383 2.34 1.09 3.02 0.703 0.683 1.613 1.023 2.723 1.027 1.031-0.004 1.887-0.25 2.57-0.75 0.68-0.496 1.105-1.238 1.277-2.226h-2.276zm-8.926-0.075c-0.016 0.485-0.156 0.852-0.418 1.098-0.266 0.25-0.574 0.375-0.93 0.371-0.32 0.004-0.578-0.074-0.766-0.227-0.195-0.148-0.293-0.371-0.293-0.667 0.008-0.454 0.23-0.774 0.664-0.961 0.43-0.188 1.012-0.254 1.742-0.2v0.586zm0.191 2.848h2.246c-0.059-0.422-0.098-0.785-0.117-1.094-0.023-0.301-0.035-0.597-0.031-0.887v-2.378c-0.004-0.227-0.008-0.446-0.012-0.661-0.012-0.214-0.023-0.414-0.031-0.601-0.047-0.707-0.316-1.285-0.813-1.727-0.5-0.437-1.32-0.664-2.461-0.679-0.98 0.007-1.789 0.254-2.43 0.73-0.645 0.484-0.988 1.176-1.031 2.074h2.199c0.023-0.39 0.137-0.691 0.336-0.902 0.195-0.207 0.477-0.316 0.84-0.32 0.344 0.007 0.605 0.093 0.785 0.254 0.18 0.16 0.277 0.359 0.301 0.601 0.008 0.133 0.016 0.254 0.023 0.359 0 0.114 0.004 0.219 0.004 0.317v0.129h-0.496c-1.391 0.012-2.445 0.25-3.172 0.715-0.727 0.468-1.094 1.132-1.102 1.988 0.023 0.746 0.277 1.312 0.762 1.699 0.484 0.391 1.066 0.582 1.746 0.586 0.359 0 0.703-0.043 1.031-0.125 0.324-0.086 0.625-0.211 0.91-0.387l0.352-0.836 0.161 1.145zm-5.383-7.82h-2.496l-1.789 6.058-1.805-6.058h-2.555l3.066 7.82h2.523l3.056-7.82zm-15.929 6.015v-6.531h1.043c0.207 0.004 0.387 0.008 0.547 0.012 0.152 0.008 0.313 0.019 0.48 0.031 0.719 0.086 1.293 0.387 1.715 0.91 0.422 0.524 0.637 1.266 0.648 2.219-0.012 0.984-0.23 1.762-0.656 2.336-0.43 0.578-1.004 0.91-1.723 0.996-0.168 0.016-0.328 0.023-0.48 0.023-0.16 0.004-0.344 0.004-0.547 0.004h-1.027zm-2.301-8.32v10.125h3.621c0.258 0 0.477 0 0.656-0.008 0.176 0 0.391-0.02 0.637-0.051 0.789-0.093 1.5-0.347 2.141-0.761 0.633-0.414 1.141-0.985 1.52-1.715 0.375-0.731 0.566-1.617 0.578-2.66-0.012-1.036-0.203-1.899-0.574-2.594-0.375-0.688-0.879-1.219-1.512-1.59-0.637-0.371-1.348-0.602-2.137-0.687-0.246-0.028-0.457-0.043-0.637-0.051-0.18-0.004-0.398-0.008-0.656-0.008h-3.637zM351.76 68.992v-7.82h-2.301v7.82h2.301zm-1.156-10.844c-0.363 0.008-0.652 0.117-0.875 0.328-0.223 0.215-0.34 0.493-0.344 0.828 0.004 0.356 0.121 0.637 0.344 0.848 0.223 0.215 0.512 0.324 0.875 0.328 0.359-0.004 0.656-0.113 0.883-0.328 0.227-0.211 0.34-0.492 0.348-0.848-0.008-0.335-0.121-0.613-0.348-0.828-0.227-0.211-0.524-0.32-0.883-0.328zm-3.946 4.547h1.656V61.23h-1.656v-1.969h-2.305v1.969h-1.188v1.465h1.188v3.594c-0.004 0.222 0 0.426 0.004 0.613 0 0.192 0.008 0.383 0.027 0.578 0.027 0.571 0.215 1 0.566 1.281 0.348 0.282 0.945 0.418 1.793 0.422 0.246-0.004 0.488-0.015 0.723-0.035 0.23-0.019 0.465-0.047 0.703-0.082v-1.469c-0.574 0.047-0.965 0.008-1.168-0.121-0.211-0.121-0.32-0.375-0.332-0.757-0.008-0.102-0.012-0.215-0.012-0.344-0.004-0.125-0.004-0.254 0-0.391v-3.289zm-10.844 3.891c0.113 0.883 0.488 1.539 1.125 1.968 0.637 0.43 1.461 0.641 2.473 0.641 0.938 0 1.719-0.191 2.344-0.582 0.621-0.391 0.941-0.992 0.969-1.809-0.012-0.718-0.234-1.269-0.672-1.644-0.441-0.375-1.043-0.652-1.805-0.836-0.691-0.168-1.172-0.34-1.438-0.52-0.273-0.171-0.398-0.39-0.383-0.652 0-0.207 0.07-0.379 0.215-0.516 0.141-0.128 0.336-0.199 0.59-0.207 0.281 0.004 0.512 0.094 0.688 0.266 0.168 0.176 0.285 0.426 0.355 0.75h2.273c-0.102-0.723-0.414-1.312-0.945-1.773-0.535-0.453-1.277-0.692-2.223-0.707-0.996 0.007-1.785 0.23-2.367 0.66-0.582 0.437-0.879 1.039-0.891 1.804 0.008 0.665 0.227 1.18 0.66 1.547 0.43 0.375 1.02 0.645 1.762 0.817 0.68 0.156 1.164 0.328 1.457 0.508 0.285 0.183 0.426 0.41 0.422 0.679-0.012 0.254-0.109 0.438-0.293 0.559-0.188 0.121-0.422 0.18-0.707 0.176-0.328 0-0.613-0.094-0.852-0.289-0.238-0.188-0.398-0.469-0.484-0.84h-2.273zm-4.789 1.027c-0.559 0-0.988-0.219-1.293-0.656-0.309-0.434-0.465-1.063-0.469-1.883 0.004-0.816 0.16-1.441 0.469-1.871 0.305-0.43 0.734-0.649 1.293-0.656 0.547 0.007 0.973 0.226 1.281 0.656 0.305 0.43 0.461 1.055 0.469 1.871-0.008 0.82-0.164 1.449-0.469 1.883-0.308 0.437-0.734 0.656-1.281 0.656zm0-6.648c-1.309 0.02-2.32 0.402-3.035 1.14-0.715 0.746-1.078 1.735-1.086 2.969 0.008 1.238 0.371 2.23 1.086 2.977 0.715 0.746 1.727 1.125 3.035 1.144 1.301-0.019 2.313-0.398 3.031-1.144 0.719-0.747 1.082-1.739 1.094-2.977-0.012-1.234-0.375-2.223-1.094-2.969-0.718-0.738-1.73-1.121-3.031-1.14zm-10.593 1.453v-1.246h-2.301v7.82h2.301v-3.625c0.008-0.988 0.16-1.707 0.453-2.156 0.289-0.446 0.664-0.668 1.133-0.664 0.445 0.007 0.785 0.125 1.012 0.351 0.227 0.227 0.352 0.543 0.383 0.942 0.012 0.203 0.023 0.395 0.027 0.582 0 0.188 0 0.355 0.004 0.504v4.066h2.301v-4.418c0-0.313-0.004-0.582-0.012-0.813-0.016-0.23-0.035-0.445-0.059-0.64-0.094-0.688-0.371-1.215-0.84-1.59-0.469-0.367-1.113-0.559-1.934-0.566-0.367 0-0.699 0.043-0.988 0.121-0.297 0.082-0.574 0.207-0.832 0.379l-0.648 0.953zm-5.828 3.801c-0.094 0.46-0.27 0.804-0.52 1.039-0.258 0.238-0.563 0.359-0.918 0.355-0.488 0.008-0.871-0.199-1.152-0.621-0.281-0.418-0.426-1.082-0.434-1.992 0.004-0.824 0.145-1.442 0.43-1.848 0.277-0.402 0.664-0.605 1.156-0.605 0.383 0 0.703 0.121 0.957 0.355 0.254 0.242 0.422 0.629 0.512 1.16l2.246-0.004c-0.07-0.89-0.422-1.621-1.055-2.199-0.637-0.57-1.504-0.871-2.602-0.895-0.75 0.004-1.426 0.168-2.023 0.488-0.605 0.324-1.082 0.797-1.438 1.418-0.356 0.621-0.539 1.379-0.543 2.277 0.02 1.332 0.383 2.34 1.09 3.02 0.703 0.683 1.613 1.023 2.723 1.027 1.031-0.004 1.887-0.25 2.57-0.75 0.68-0.496 1.105-1.238 1.277-2.226h-2.276zm-6.661-5.047h-2.289v4.183c-0.008 0.723-0.152 1.278-0.426 1.66-0.281 0.391-0.656 0.582-1.129 0.582-0.449 0-0.785-0.109-1.004-0.332-0.227-0.214-0.359-0.523-0.406-0.929-0.023-0.196-0.039-0.391-0.047-0.586-0.008-0.188-0.012-0.352-0.012-0.485v-4.093h-2.289v4.593c-0.004 0.313 0.004 0.582 0.016 0.813 0.008 0.234 0.027 0.449 0.059 0.641 0.09 0.55 0.367 1.015 0.84 1.39 0.465 0.375 1.105 0.567 1.918 0.586 0.363 0 0.691-0.039 0.988-0.117 0.289-0.078 0.566-0.203 0.832-0.379l0.66-1.027v1.32h2.289v-7.82zm-12.832 6.441c-0.559 0-0.988-0.219-1.293-0.656-0.309-0.434-0.465-1.063-0.469-1.883 0.004-0.816 0.16-1.441 0.469-1.871 0.305-0.43 0.734-0.649 1.293-0.656 0.547 0.007 0.973 0.226 1.281 0.656 0.305 0.43 0.461 1.055 0.469 1.871-0.008 0.82-0.164 1.449-0.469 1.883-0.308 0.437-0.734 0.656-1.281 0.656zm0-6.648c-1.309 0.02-2.32 0.402-3.035 1.14-0.715 0.746-1.078 1.735-1.086 2.969 0.008 1.238 0.371 2.23 1.086 2.977 0.715 0.746 1.727 1.125 3.035 1.144 1.301-0.019 2.313-0.398 3.031-1.144 0.719-0.747 1.082-1.739 1.094-2.977-0.012-1.234-0.375-2.223-1.094-2.969-0.718-0.738-1.73-1.121-3.031-1.14zm-7.691 4.211c-0.016 0.89-0.199 1.519-0.543 1.89-0.352 0.379-0.793 0.563-1.324 0.547-0.555-0.004-0.996-0.23-1.324-0.676-0.336-0.441-0.504-1.054-0.512-1.836 0.008-0.851 0.184-1.488 0.535-1.914 0.344-0.426 0.805-0.64 1.375-0.64 0.453-0.008 0.859 0.16 1.219 0.504 0.359 0.347 0.551 0.933 0.574 1.757v0.368zm2.301-6.969h-2.301v3.988l-0.516-0.82c-0.211-0.125-0.484-0.223-0.816-0.297-0.34-0.07-0.676-0.109-1.004-0.113-0.684 0-1.305 0.164-1.863 0.484-0.563 0.328-1.012 0.805-1.348 1.434-0.34 0.636-0.512 1.421-0.516 2.351 0.008 1.184 0.316 2.133 0.922 2.852 0.602 0.722 1.449 1.09 2.539 1.109 0.402-0.004 0.781-0.047 1.137-0.129 0.355-0.086 0.645-0.211 0.875-0.383l0.59-0.863v1.172h2.301V58.207zm-9.637 2.965h-2.289v4.183c-0.008 0.723-0.152 1.278-0.426 1.66-0.281 0.391-0.656 0.582-1.129 0.582-0.449 0-0.785-0.109-1.004-0.332-0.227-0.214-0.359-0.523-0.406-0.929-0.023-0.196-0.039-0.391-0.047-0.586-0.008-0.188-0.012-0.352-0.012-0.485v-4.093h-2.289v4.593c-0.004 0.313 0.004 0.582 0.016 0.813 0.008 0.234 0.027 0.449 0.059 0.641 0.09 0.55 0.367 1.015 0.84 1.39 0.465 0.375 1.105 0.567 1.918 0.586 0.363 0 0.691-0.039 0.988-0.117 0.289-0.078 0.566-0.203 0.832-0.379l0.66-1.027v1.32h2.289v-7.82zm-14.773 3.812c0.012-0.883 0.191-1.512 0.535-1.89 0.344-0.372 0.785-0.555 1.332-0.547 0.547 0.011 0.988 0.238 1.324 0.679 0.328 0.446 0.5 1.059 0.508 1.832-0.008 0.856-0.188 1.493-0.535 1.918-0.348 0.426-0.805 0.641-1.371 0.637-0.465 0.016-0.875-0.152-1.227-0.504-0.359-0.344-0.547-0.933-0.566-1.77v-0.355zm0-2.64v-4.137h-2.301v10.785h2.301v-1.027l0.516 0.82c0.207 0.133 0.48 0.23 0.816 0.301 0.336 0.07 0.668 0.105 1.004 0.109 0.676-0.004 1.297-0.16 1.859-0.48 0.559-0.321 1.008-0.801 1.348-1.438 0.336-0.633 0.508-1.422 0.52-2.363-0.016-1.172-0.324-2.117-0.926-2.84-0.609-0.715-1.453-1.086-2.535-1.109-0.406 0-0.785 0.046-1.141 0.132-0.355 0.09-0.648 0.215-0.871 0.383l-0.59 0.864zm-10.387 5.269c-0.559 0-0.988-0.219-1.293-0.656-0.309-0.434-0.465-1.063-0.469-1.883 0.004-0.816 0.16-1.441 0.469-1.871 0.305-0.43 0.734-0.649 1.293-0.656 0.547 0.007 0.973 0.226 1.281 0.656 0.305 0.43 0.461 1.055 0.469 1.871-0.008 0.82-0.164 1.449-0.469 1.883-0.309 0.437-0.734 0.656-1.281 0.656zm0-6.648c-1.309 0.02-2.32 0.402-3.035 1.14-0.715 0.746-1.078 1.735-1.086 2.969 0.008 1.238 0.371 2.23 1.086 2.977 0.715 0.746 1.727 1.125 3.035 1.144 1.301-0.019 2.313-0.398 3.031-1.144 0.719-0.747 1.082-1.739 1.094-2.977-0.012-1.234-0.375-2.223-1.094-2.969-0.719-0.738-1.73-1.121-3.031-1.14zM267.123 87.058c-0.691-0.004-1.242-0.214-1.656-0.629-0.414-0.41-0.715-0.976-0.895-1.695-0.188-0.719-0.273-1.539-0.266-2.461-0.008-0.929 0.078-1.754 0.266-2.472 0.18-0.719 0.48-1.282 0.895-1.688 0.414-0.406 0.965-0.613 1.656-0.625 0.691 0.012 1.246 0.223 1.664 0.629 0.41 0.414 0.707 0.977 0.891 1.691 0.176 0.719 0.266 1.539 0.266 2.465 0 0.93-0.09 1.754-0.266 2.469-0.184 0.719-0.48 1.281-0.891 1.691-0.418 0.411-0.973 0.621-1.664 0.625zm0-10.054c-0.836 0.011-1.504 0.238-2.008 0.683-0.504 0.449-0.871 1.067-1.094 1.856-0.227 0.789-0.336 1.699-0.332 2.73-0.004 1.024 0.105 1.93 0.332 2.715 0.223 0.793 0.59 1.414 1.094 1.863 0.504 0.45 1.172 0.676 2.008 0.688 0.836-0.012 1.508-0.238 2.012-0.684 0.504-0.449 0.867-1.066 1.094-1.859 0.223-0.785 0.332-1.695 0.328-2.723 0.004-1.023-0.105-1.929-0.328-2.722-0.227-0.786-0.59-1.403-1.094-1.856-0.504-0.445-1.176-0.676-2.012-0.691zm-10.461 9.847 3.242-3.007c0.863-0.786 1.48-1.481 1.855-2.094 0.371-0.61 0.555-1.27 0.551-1.973-0.008-0.773-0.258-1.422-0.75-1.953-0.5-0.523-1.219-0.797-2.156-0.82-0.859 0.015-1.582 0.281-2.176 0.797-0.598 0.523-0.953 1.246-1.066 2.168h0.57c0.117-0.793 0.418-1.407 0.898-1.836 0.477-0.426 1.063-0.641 1.758-0.645 0.723 0.02 1.285 0.246 1.691 0.676 0.398 0.437 0.605 0.984 0.613 1.644 0.016 0.598-0.137 1.168-0.457 1.707-0.32 0.547-0.887 1.196-1.699 1.946l-3.742 3.48v0.395h6.469v-0.485h-5.601zm-5.476 0.207c-0.691-0.004-1.242-0.214-1.656-0.629-0.414-0.41-0.715-0.976-0.895-1.695-0.188-0.719-0.273-1.539-0.266-2.461-0.008-0.929 0.078-1.754 0.266-2.472 0.18-0.719 0.48-1.282 0.895-1.688 0.414-0.406 0.965-0.613 1.656-0.625 0.691 0.012 1.246 0.223 1.664 0.629 0.41 0.414 0.707 0.977 0.891 1.691 0.176 0.719 0.266 1.539 0.266 2.465 0 0.93-0.09 1.754-0.266 2.469-0.184 0.719-0.48 1.281-0.891 1.691-0.418 0.411-0.973 0.621-1.664 0.625zm0-10.054c-0.836 0.011-1.504 0.238-2.008 0.683-0.504 0.449-0.871 1.067-1.094 1.856-0.227 0.789-0.336 1.699-0.332 2.73-0.004 1.024 0.105 1.93 0.332 2.715 0.223 0.793 0.59 1.414 1.094 1.863 0.504 0.45 1.172 0.676 2.008 0.688 0.836-0.012 1.508-0.238 2.012-0.684 0.504-0.449 0.867-1.066 1.094-1.859 0.223-0.785 0.332-1.695 0.328-2.723 0.004-1.023-0.105-1.929-0.328-2.722-0.227-0.786-0.59-1.403-1.094-1.856-0.505-0.445-1.177-0.676-2.012-0.691zm-10.457 9.847 3.242-3.007c0.863-0.786 1.48-1.481 1.855-2.094 0.371-0.61 0.555-1.27 0.551-1.973-0.008-0.773-0.258-1.422-0.75-1.953-0.5-0.523-1.219-0.797-2.156-0.82-0.859 0.015-1.582 0.281-2.176 0.797-0.598 0.523-0.953 1.246-1.066 2.168h0.57c0.117-0.793 0.418-1.407 0.898-1.836 0.477-0.426 1.063-0.641 1.758-0.645 0.723 0.02 1.285 0.246 1.691 0.676 0.398 0.437 0.605 0.984 0.613 1.644 0.016 0.598-0.137 1.168-0.457 1.707-0.32 0.547-0.887 1.196-1.699 1.946l-3.742 3.48v0.395h6.469v-0.485h-5.601zm-8.426 0.223c-0.559 0.004-1.07-0.129-1.527-0.402-0.465-0.266-0.836-0.668-1.113-1.2-0.281-0.531-0.422-1.195-0.43-1.996 0.008-0.8 0.148-1.468 0.43-2.004 0.277-0.535 0.648-0.937 1.113-1.207 0.457-0.265 0.969-0.398 1.527-0.402 0.555 0.004 1.063 0.137 1.527 0.402 0.465 0.27 0.84 0.672 1.121 1.207 0.281 0.536 0.426 1.204 0.434 2.004-0.008 0.801-0.152 1.465-0.434 1.996-0.281 0.532-0.656 0.934-1.121 1.2-0.465 0.273-0.973 0.406-1.527 0.402zm0-7.676c-1.156 0.024-2.059 0.406-2.703 1.145-0.645 0.742-0.973 1.718-0.98 2.933 0.008 1.211 0.336 2.184 0.98 2.922 0.645 0.738 1.547 1.117 2.703 1.141 1.152-0.024 2.051-0.403 2.699-1.141 0.645-0.738 0.973-1.711 0.98-2.922-0.008-1.215-0.336-2.191-0.98-2.933-0.648-0.739-1.547-1.121-2.699-1.145zm-8.801 4.285 3.641 3.653h0.789l-4.004-4.008 3.977-3.727h-0.762l-4.316 4.125v-7.175h-0.555v10.785h0.555v-2.981l0.675-0.672zm-8.383 1.364c0.109 0.879 0.434 1.515 0.969 1.91 0.531 0.394 1.176 0.586 1.938 0.582 0.781-0.008 1.418-0.188 1.91-0.547 0.484-0.359 0.738-0.867 0.758-1.52-0.004-0.64-0.227-1.136-0.664-1.488-0.445-0.348-1.109-0.617-1.992-0.816-0.605-0.125-1.086-0.317-1.441-0.571-0.363-0.246-0.547-0.617-0.555-1.117 0.012-0.508 0.195-0.906 0.547-1.187 0.352-0.282 0.789-0.422 1.316-0.43 0.582 0.004 1.051 0.156 1.402 0.465 0.352 0.312 0.598 0.781 0.742 1.402h0.57c-0.102-0.676-0.371-1.23-0.805-1.664-0.438-0.43-1.063-0.652-1.879-0.668-0.742 0.012-1.336 0.211-1.777 0.594-0.449 0.391-0.68 0.898-0.688 1.531 0.016 0.649 0.246 1.133 0.691 1.453 0.441 0.321 0.988 0.551 1.641 0.692 0.844 0.195 1.445 0.429 1.805 0.703 0.352 0.273 0.523 0.652 0.516 1.133-0.02 0.515-0.223 0.906-0.609 1.168-0.395 0.269-0.875 0.402-1.445 0.402-0.605 0.012-1.121-0.141-1.547-0.453-0.43-0.309-0.707-0.832-0.832-1.574h-0.571zm-0.742 1.836h-5.324l5.266-6.711v-0.465h-5.574v0.48h4.902l-5.281 6.711v0.438h6.012v-0.453zm-12.93-3.743c0.035-0.738 0.195-1.347 0.48-1.836 0.285-0.48 0.641-0.843 1.066-1.082 0.426-0.238 0.867-0.355 1.328-0.359 0.441 0 0.863 0.106 1.27 0.32 0.398 0.215 0.734 0.563 1.004 1.043 0.266 0.485 0.418 1.121 0.457 1.914h-5.605zm5.473 1.789c-0.203 0.735-0.551 1.278-1.039 1.625-0.488 0.352-1.031 0.524-1.633 0.52-0.461 0.004-0.898-0.109-1.313-0.336-0.414-0.227-0.758-0.594-1.031-1.105-0.273-0.504-0.426-1.176-0.457-2.012h6.148c0-0.094 0.004-0.168 0.012-0.227 0-0.054 0-0.101 0-0.136 0-0.68-0.117-1.309-0.355-1.895-0.242-0.578-0.605-1.051-1.086-1.41-0.484-0.359-1.086-0.543-1.813-0.555-1.008 0.02-1.84 0.387-2.492 1.106-0.656 0.722-0.996 1.703-1.016 2.941 0.004 0.906 0.16 1.664 0.465 2.27 0.301 0.609 0.703 1.066 1.211 1.367 0.504 0.304 1.07 0.453 1.699 0.457 0.762 0 1.441-0.215 2.039-0.649 0.59-0.433 1-1.086 1.23-1.961h-0.569zm-7.754-8.378h-0.559v8.921c-0.004 0.25-0.004 0.457 0.004 0.618 0 0.164 0.004 0.316 0.012 0.453 0.016 0.336 0.105 0.562 0.262 0.687 0.157 0.125 0.355 0.184 0.602 0.18 0.086-0.004 0.176-0.008 0.27-0.008 0.09-0.008 0.18-0.019 0.273-0.039v-0.437c-0.313 0.039-0.527 0.023-0.652-0.055-0.125-0.074-0.191-0.235-0.195-0.473-0.012-0.109-0.016-0.238-0.016-0.387 0-0.148 0-0.332 0-0.554v-8.906zm-7.668 8.496c0.109 0.879 0.434 1.515 0.969 1.91 0.531 0.394 1.176 0.586 1.938 0.582 0.781-0.008 1.418-0.188 1.91-0.547 0.484-0.359 0.738-0.867 0.758-1.52-0.004-0.64-0.227-1.136-0.664-1.488-0.445-0.348-1.109-0.617-1.992-0.816-0.605-0.125-1.086-0.317-1.441-0.571-0.363-0.246-0.547-0.617-0.555-1.117 0.012-0.508 0.195-0.906 0.547-1.187 0.352-0.282 0.789-0.422 1.316-0.43 0.582 0.004 1.051 0.156 1.402 0.465 0.352 0.312 0.598 0.781 0.742 1.402h0.57c-0.102-0.676-0.371-1.23-0.805-1.664-0.438-0.43-1.063-0.652-1.879-0.668-0.742 0.012-1.336 0.211-1.777 0.594-0.449 0.391-0.68 0.898-0.688 1.531 0.016 0.649 0.246 1.133 0.691 1.453 0.441 0.321 0.988 0.551 1.641 0.692 0.844 0.195 1.445 0.429 1.805 0.703 0.352 0.273 0.523 0.652 0.516 1.133-0.02 0.515-0.223 0.906-0.609 1.168-0.395 0.269-0.875 0.402-1.445 0.402-0.605 0.012-1.121-0.141-1.547-0.453-0.43-0.309-0.707-0.832-0.832-1.574h-0.571zm-4.512 2.027c-0.559 0.004-1.07-0.129-1.527-0.402-0.465-0.266-0.836-0.668-1.113-1.2-0.281-0.531-0.422-1.195-0.43-1.996 0.008-0.8 0.148-1.468 0.43-2.004 0.277-0.535 0.648-0.937 1.113-1.207 0.457-0.265 0.969-0.398 1.527-0.402 0.555 0.004 1.063 0.137 1.527 0.402 0.465 0.27 0.84 0.672 1.121 1.207 0.281 0.536 0.426 1.204 0.434 2.004-0.008 0.801-0.152 1.465-0.434 1.996-0.281 0.532-0.656 0.934-1.121 1.2-0.464 0.273-0.972 0.406-1.527 0.402zm0-7.676c-1.156 0.024-2.059 0.406-2.703 1.145-0.645 0.742-0.973 1.718-0.98 2.933 0.008 1.211 0.336 2.184 0.98 2.922 0.645 0.738 1.547 1.117 2.703 1.141 1.152-0.024 2.051-0.403 2.699-1.141 0.645-0.738 0.973-1.711 0.98-2.922-0.008-1.215-0.336-2.191-0.98-2.933-0.648-0.739-1.546-1.121-2.699-1.145zm-8.8 4.285 3.641 3.653h0.789l-4.004-4.008 3.977-3.727h-0.762l-4.316 4.125v-7.175h-0.555v10.785h0.555v-2.981l0.675-0.672zm-8.383 1.364c0.109 0.879 0.434 1.515 0.969 1.91 0.531 0.394 1.176 0.586 1.938 0.582 0.781-0.008 1.418-0.188 1.91-0.547 0.484-0.359 0.738-0.867 0.758-1.52-0.004-0.64-0.227-1.136-0.664-1.488-0.445-0.348-1.109-0.617-1.992-0.816-0.605-0.125-1.086-0.317-1.441-0.571-0.363-0.246-0.547-0.617-0.555-1.117 0.012-0.508 0.195-0.906 0.547-1.187 0.352-0.282 0.789-0.422 1.316-0.43 0.582 0.004 1.051 0.156 1.402 0.465 0.352 0.312 0.598 0.781 0.742 1.402h0.57c-0.102-0.676-0.371-1.23-0.805-1.664-0.438-0.43-1.063-0.652-1.879-0.668-0.742 0.012-1.336 0.211-1.777 0.594-0.449 0.391-0.68 0.898-0.688 1.531 0.016 0.649 0.246 1.133 0.691 1.453 0.441 0.321 0.988 0.551 1.641 0.692 0.844 0.195 1.445 0.429 1.805 0.703 0.352 0.273 0.523 0.652 0.516 1.133-0.02 0.515-0.223 0.906-0.609 1.168-0.395 0.269-0.875 0.402-1.445 0.402-0.605 0.012-1.121-0.141-1.547-0.453-0.43-0.309-0.707-0.832-0.832-1.574h-0.571zm-0.512-5.446h-0.602l-2.773 7.309-2.773-7.309h-0.629l3.023 7.735h0.73l3.024-7.735zm-8.551 4.696c-0.012 0.773-0.246 1.422-0.707 1.949-0.461 0.531-1.082 0.808-1.863 0.828-0.648-0.004-1.133-0.152-1.453-0.445-0.324-0.293-0.488-0.703-0.484-1.231 0.008-0.547 0.234-0.984 0.672-1.312 0.434-0.325 0.992-0.551 1.676-0.676 0.68-0.125 1.398-0.16 2.16-0.109v0.996zm0.117 3.039h0.57c-0.047-0.477-0.082-0.891-0.102-1.246-0.023-0.352-0.035-0.723-0.031-1.118v-2.523c-0.004-0.184-0.004-0.352-0.004-0.504-0.004-0.152-0.012-0.32-0.023-0.508-0.059-0.648-0.297-1.148-0.715-1.504-0.422-0.351-1.031-0.531-1.824-0.535-0.801 0.016-1.449 0.242-1.953 0.68-0.504 0.441-0.789 1.012-0.852 1.711h0.574c0.094-0.668 0.352-1.156 0.773-1.469 0.418-0.305 0.902-0.457 1.457-0.457 0.605 0.008 1.078 0.148 1.414 0.43 0.332 0.281 0.52 0.683 0.566 1.203 0.012 0.16 0.023 0.32 0.027 0.48 0 0.16 0 0.328 0.004 0.504v0.352h-0.5c-0.871 0-1.652 0.09-2.344 0.273-0.695 0.188-1.246 0.473-1.652 0.856-0.414 0.383-0.621 0.871-0.625 1.465 0.004 0.703 0.223 1.23 0.66 1.582 0.43 0.351 1.016 0.527 1.758 0.531 0.484 0 0.934-0.09 1.34-0.274 0.402-0.183 0.738-0.461 1.012-0.839l0.363-0.778 0.107 1.688zm-8.312-6.164v-1.571h-0.555v7.735h0.555v-4.285c0.008-1.165 0.23-1.997 0.664-2.497 0.43-0.496 1-0.718 1.715-0.66v-0.453c-0.121-0.023-0.254-0.039-0.398-0.043-0.32 0.004-0.613 0.078-0.879 0.219-0.273 0.148-0.504 0.352-0.691 0.617l-0.411 0.938zm-5.746 5.902c-0.559 0.004-1.07-0.129-1.527-0.402-0.465-0.266-0.836-0.668-1.113-1.2-0.281-0.531-0.422-1.195-0.43-1.996 0.008-0.8 0.148-1.468 0.43-2.004 0.277-0.535 0.648-0.937 1.113-1.207 0.457-0.265 0.969-0.398 1.527-0.402 0.555 0.004 1.063 0.137 1.527 0.402 0.465 0.27 0.84 0.672 1.121 1.207 0.281 0.536 0.426 1.204 0.434 2.004-0.008 0.801-0.152 1.465-0.434 1.996-0.281 0.532-0.656 0.934-1.121 1.2-0.465 0.273-0.972 0.406-1.527 0.402zm0-7.676c-1.156 0.024-2.059 0.406-2.703 1.145-0.645 0.742-0.973 1.718-0.98 2.933 0.008 1.211 0.336 2.184 0.98 2.922 0.645 0.738 1.547 1.117 2.703 1.141 1.152-0.024 2.051-0.403 2.699-1.141 0.645-0.738 0.973-1.711 0.98-2.922-0.008-1.215-0.336-2.191-0.98-2.933-0.648-0.739-1.547-1.121-2.699-1.145zm-5.203-2.187h-0.863l-3.832 9.625-3.801-9.625h-0.922v10.125h0.555v-5.707c0-0.645-0.004-1.305-0.004-1.985-0.008-0.675-0.016-1.328-0.027-1.953 0.23 0.621 0.48 1.274 0.746 1.953 0.266 0.684 0.523 1.34 0.781 1.969l2.305 5.723h0.707l2.305-5.707c0.254-0.641 0.516-1.301 0.781-1.985 0.266-0.683 0.512-1.34 0.742-1.965-0.016 0.625-0.023 1.278-0.02 1.957 0 0.68 0.004 1.344 0.008 1.993v5.707h0.539V77.211zM99.873 55.418c-0.984-0.02-1.719 0.476-2.203 1.48-0.484 1.012-0.727 2.649-0.719 4.918-0.008 2.25 0.234 3.883 0.719 4.899 0.484 1.015 1.219 1.515 2.203 1.5 0.984 0.015 1.719-0.485 2.203-1.5 0.48-1.016 0.719-2.649 0.723-4.899-0.004-2.269-0.242-3.906-0.723-4.918-0.484-1.004-1.219-1.5-2.203-1.48zM115.99 62.289C116.12246 52.75482 109.99456 43.559771 101.18177 39.948328 92.433588 36.134649 81.549253 38.17711 74.806267 44.939935 67.823025 51.584192 65.526729 62.558756 69.288156 71.442969 72.415174 79.263521 79.88554 85.133551 88.236 86.277 87.281856 87.355874 84.685401 88.748869 84.531512 89.280361 95.434121 89.144434 106.48802 83.991522 112.70766 74.885294 114.90619 71.091312 115.96232 66.658231 115.99 62.289zm-26.324 5.375c0 1.078 0 2.156 0 3.234-4.561333 0-9.122667 0-13.684 0 0.07363-0.986697-0.146366-2.110317 0.108087-3.012698 2.775943-2.42988 5.79424-4.606727 8.325046-7.294904 1.864388-1.64533 1.309618-5.894993-1.79143-5.172851-2.457152-0.08107-1.180178 3.697427-3.415592 3.027453-0.962037 0-1.924074 0-2.886111 0-0.04188-3.097669 2.537112-5.742697 5.577937-6.016562 3.02928-0.521667 7.040335 0.485598 7.777418 3.929473 0.775811 2.76237-0.774663 5.491543-2.90073 7.174589-1.59438 1.42229-3.265702 2.755209-4.899625 4.1315 2.596333 0 5.192667 0 7.789 0zm15.785 1.07c-2.17921 3.026819-6.916323 3.234661-9.885459 1.316351-3.15965-2.550951-3.145249-7.133258-2.808406-10.826546 0.258349-2.996843 2.064629-6.260486 5.311974-6.68418 3.118281-0.69625 6.988431 0.444782 8.131361 3.705656 1.32534 3.643307 1.34476 7.898335-0.16688 11.488407-0.1692 0.34716-0.36288 0.682604-0.58259 1.000312z" fill="#c0c0c0"/>
</svg>
