<?xml version="1.0" encoding="UTF-8" standalone="no"?>
<!-- Created with Inkscape (http://www.inkscape.org/) -->

<svg
   xmlns:dc="http://purl.org/dc/elements/1.1/"
   xmlns:cc="http://creativecommons.org/ns#"
   xmlns:rdf="http://www.w3.org/1999/02/22-rdf-syntax-ns#"
   xmlns:svg="http://www.w3.org/2000/svg"
   xmlns="http://www.w3.org/2000/svg"
   xmlns:xlink="http://www.w3.org/1999/xlink"
   xmlns:sodipodi="http://sodipodi.sourceforge.net/DTD/sodipodi-0.dtd"
   xmlns:inkscape="http://www.inkscape.org/namespaces/inkscape"
   width="320"
   height="270"
   id="svg2"
   inkscape:label="Pozadí"
   version="1.1"
   inkscape:version="0.48.4 r9939"
   sodipodi:docname="bublina-kadlucka.svg"
   inkscape:export-filename="D:\wamp\www\20predstav\app\predstavy\kadlucka\bublina-kadlucka.png"
   inkscape:export-xdpi="90"
   inkscape:export-ydpi="90">
  <defs
     id="defs3261">
    <clipPath
       clipPathUnits="userSpaceOnUse"
       id="clipPath3777">
      <path
         inkscape:connector-curvature="0"
         id="path3779"
         d="M 176,-47.8 C 106,-47.8 49.9,9.46 49.9,79.8 49.9,143 96.1,197 158,207 c -6,4 -14,9 -21,15 34,0 76,-10 114,-38 -18,-14 -29,-37 -29,-62 0,-42.2 33,-77.8 76,-79.7 -16,-52.04 -64,-90.1 -122,-90.1 z"
         style="fill:#67a6a6" />
    </clipPath>
  </defs>
  <sodipodi:namedview
     id="base"
     pagecolor="#ffffff"
     bordercolor="#666666"
     borderopacity="1.0"
     inkscape:pageopacity="0.0"
     inkscape:pageshadow="2"
     inkscape:zoom="1.99"
     inkscape:cx="215"
     inkscape:cy="117"
     inkscape:document-units="px"
     inkscape:current-layer="layer1"
     showgrid="false"
     fit-margin-top="0"
     fit-margin-left="0"
     fit-margin-right="0"
     fit-margin-bottom="0"
     inkscape:window-width="1600"
     inkscape:window-height="1148"
     inkscape:window-x="-8"
     inkscape:window-y="-8"
     inkscape:window-maximized="1" />
  <metadata
     id="metadata3264">
    <rdf:RDF>
      <cc:Work
         rdf:about="">
        <dc:format>image/svg+xml</dc:format>
        <dc:type
           rdf:resource="http://purl.org/dc/dcmitype/StillImage" />
        <dc:title></dc:title>
      </cc:Work>
    </rdf:RDF>
  </metadata>
  <g
     inkscape:label="Vrstva 1"
     inkscape:groupmode="layer"
     id="layer1"
     transform="translate(-49.947253,48.139079)">
    <image
       y="-150"
       x="-563"
       id="image2998"
       xlink:href="file:///D:/wamp/www/20predstav/src/images/kadlucka-upr.jpg"
       height="787"
       width="1170"
       clip-path="url(#clipPath3777)"
       transform="translate(0.047,-0.139)" />
    <path
       inkscape:connector-curvature="0"
       id="path3760"
       d="m 177,-518 c -70,0 -127.1,57 -127.1,127 0,33 12,63 33,86 l -1,0 c 35.1,41 96.1,56 136.1,57 -8,-5 -15,-11 -21,-17 19,-2 36,-10 52,-20 -17,-15 -28,-37 -28,-61 0,-44 35,-79 78,-81 -15,-52 -64,-91 -122,-91 z"
       style="fill:#1c2422;fill-opacity:0.32" />
    <path
       d="m 301,54 c 38,0 68,30.5 68,68 0,48 -44,76 -89,76 4,-3 8,-6 11,-8 -33,-5 -58,-34 -58,-68 0,-37.5 30,-68 68,-68 z"
       id="path151"
       inkscape:connector-curvature="0"
       style="fill:#67a6a6;fill-opacity:1;stroke:none"
       sodipodi:nodetypes="scccss" />
    <text
       xml:space="preserve"
       style="font-size:24px;font-style:oblique;font-variant:normal;font-weight:normal;font-stretch:normal;text-align:center;line-height:125%;letter-spacing:0px;word-spacing:0px;writing-mode:lr-tb;text-anchor:middle;fill:#ffffff;fill-opacity:1;stroke:none;font-family:Vollkorn Medium;-inkscape-font-specification:'Vollkorn Medium, Oblique'"
       x="302.47495"
       y="114.84821"
       id="text4174"
       sodipodi:linespacing="125%"
       inkscape:export-xdpi="90"
       inkscape:export-ydpi="90"><tspan
         sodipodi:role="line"
         id="tspan4176"
         x="302.47495"
         y="114.84821"
         style="font-size:24px;font-style:oblique;font-variant:normal;font-weight:normal;font-stretch:normal;text-align:center;line-height:125%;writing-mode:lr-tb;text-anchor:middle;fill:#ffffff;font-family:Vollkorn Medium;-inkscape-font-specification:'Vollkorn Medium, Oblique'">Roman</tspan><tspan
         sodipodi:role="line"
         x="302.47495"
         y="144.84821"
         id="tspan4178"
         style="font-size:24px;font-style:oblique;font-variant:normal;font-weight:normal;font-stretch:normal;text-align:center;line-height:125%;writing-mode:lr-tb;text-anchor:middle;fill:#ffffff;font-family:Vollkorn Medium;-inkscape-font-specification:'Vollkorn Medium, Oblique'">Kadlučka</tspan></text>
  </g>
</svg>
