<?xml version="1.0" encoding="UTF-8" standalone="no"?>
<!-- Created with Inkscape (http://www.inkscape.org/) -->

<svg
   xmlns:dc="http://purl.org/dc/elements/1.1/"
   xmlns:cc="http://creativecommons.org/ns#"
   xmlns:rdf="http://www.w3.org/1999/02/22-rdf-syntax-ns#"
   xmlns:svg="http://www.w3.org/2000/svg"
   xmlns="http://www.w3.org/2000/svg"
   xmlns:xlink="http://www.w3.org/1999/xlink"
   xmlns:sodipodi="http://sodipodi.sourceforge.net/DTD/sodipodi-0.dtd"
   xmlns:inkscape="http://www.inkscape.org/namespaces/inkscape"
   width="152"
   height="152"
   id="svg2"
   inkscape:label="Pozadí"
   version="1.1"
   inkscape:version="0.48.4 r9939"
   sodipodi:docname="fav-big.svg"
   inkscape:export-filename="D:\wamp\www\20predstav\app\apple-touch-icon-precomposed.png"
   inkscape:export-xdpi="90"
   inkscape:export-ydpi="90">
  <defs
     id="defs3261">
    <linearGradient
       inkscape:collect="always"
       id="linearGradient3789">
      <stop
         style="stop-color:#67a6a6;stop-opacity:1;"
         offset="0"
         id="stop3791" />
      <stop
         style="stop-color:#7bc7bb;stop-opacity:1"
         offset="1"
         id="stop3793" />
    </linearGradient>
    <clipPath
       clipPathUnits="userSpaceOnUse"
       id="clipPath3777">
      <path
         inkscape:connector-curvature="0"
         id="path3779"
         d="M 176,-47.8 C 106,-47.8 49.9,9.46 49.9,79.8 49.9,143 96.1,197 158,207 c -6,4 -14,9 -21,15 34,0 76,-10 114,-38 -18,-14 -29,-37 -29,-62 0,-42.2 33,-77.8 76,-79.7 -16,-52.04 -64,-90.1 -122,-90.1 z"
         style="fill:#67a6a6" />
    </clipPath>
    <radialGradient
       inkscape:collect="always"
       xlink:href="#linearGradient3789"
       id="radialGradient3799"
       cx="127.94725"
       cy="70.860916"
       fx="127.94725"
       fy="70.860916"
       r="76"
       gradientUnits="userSpaceOnUse"
       gradientTransform="matrix(1.7372906,1.0858919e-8,-1.2221668e-8,1.9553132,-94.334306,-67.694371)" />
  </defs>
  <sodipodi:namedview
     id="base"
     pagecolor="#ffffff"
     bordercolor="#666666"
     borderopacity="1.0"
     inkscape:pageopacity="0.0"
     inkscape:pageshadow="2"
     inkscape:zoom="2.8284271"
     inkscape:cx="53.052704"
     inkscape:cy="68.995851"
     inkscape:document-units="px"
     inkscape:current-layer="layer1"
     showgrid="false"
     fit-margin-top="0"
     fit-margin-left="0"
     fit-margin-right="0"
     fit-margin-bottom="0"
     inkscape:window-width="1600"
     inkscape:window-height="1148"
     inkscape:window-x="-8"
     inkscape:window-y="-8"
     inkscape:window-maximized="1" />
  <metadata
     id="metadata3264">
    <rdf:RDF>
      <cc:Work
         rdf:about="">
        <dc:format>image/svg+xml</dc:format>
        <dc:type
           rdf:resource="http://purl.org/dc/dcmitype/StillImage" />
        <dc:title></dc:title>
      </cc:Work>
    </rdf:RDF>
  </metadata>
  <g
     inkscape:label="Vrstva 1"
     inkscape:groupmode="layer"
     id="layer1"
     transform="translate(-49.947253,-69.860921)">
    <rect
       style="fill:url(#radialGradient3799);fill-opacity:1"
       id="rect3781"
       width="152"
       height="152"
       x="49.947254"
       y="69.860924" />
    <path
       inkscape:connector-curvature="0"
       id="path3760"
       d="m 177,-518 c -70,0 -127.1,57 -127.1,127 0,33 12,63 33,86 l -1,0 c 35.1,41 96.1,56 136.1,57 -8,-5 -15,-11 -21,-17 19,-2 36,-10 52,-20 -17,-15 -28,-37 -28,-61 0,-44 35,-79 78,-81 -15,-52 -64,-91 -122,-91 z"
       style="fill:#1c2422;fill-opacity:0.31999996" />
    <g
       id="g3783"
       transform="matrix(0.95285244,0,0,0.95285244,5.93825,6.8770709)"
       style="fill:#f2f2f2;fill-opacity:1">
      <path
         style="fill:#f2f2f2;fill-opacity:1"
         class="svglogo"
         id="path5"
         d="m 142.45258,187.63334 c -3.14741,-2.75607 -5.7886,-6.07101 -7.7656,-9.79523 -0.0251,-0.0478 -0.0479,-0.0969 -0.0742,-0.1448 -0.24413,-0.46432 -0.4775,-0.93464 -0.70129,-1.41095 -0.0527,-0.11249 -0.10173,-0.22617 -0.15318,-0.33987 -0.18908,-0.41526 -0.37219,-0.83411 -0.54451,-1.25896 -0.0622,-0.15437 -0.12207,-0.30875 -0.18191,-0.46432 -0.15198,-0.38894 -0.29798,-0.78146 -0.43561,-1.17639 -0.0634,-0.1819 -0.12446,-0.365 -0.18549,-0.5481 -0.12446,-0.37457 -0.24054,-0.75274 -0.35184,-1.1345 -0.0587,-0.20105 -0.11728,-0.40329 -0.17232,-0.60674 -0.10054,-0.3686 -0.19268,-0.74077 -0.28004,-1.11415 -0.0515,-0.21661 -0.10412,-0.43322 -0.15079,-0.65103 -0.0789,-0.36858 -0.14959,-0.74077 -0.21781,-1.11295 -0.0395,-0.22498 -0.0838,-0.44878 -0.12087,-0.67496 -0.061,-0.37816 -0.1101,-0.76111 -0.15796,-1.14287 -0.0276,-0.22379 -0.061,-0.44519 -0.0849,-0.66897 -0.0431,-0.41407 -0.0742,-0.83173 -0.10293,-1.25058 -0.0144,-0.19508 -0.0336,-0.38774 -0.0443,-0.58401 -0.0323,-0.61392 -0.0515,-1.23263 -0.0515,-1.85493 0,-0.0993 0.007,-0.19746 0.007,-0.29798 -0.89995,0.14839 -1.84178,0.24891 -2.859,0.26567 -5.09567,-0.0802 -8.73733,-1.79988 -10.92495,-5.17107 -2.18762,-3.3652 -3.25392,-7.92354 -3.19767,-13.67741 -0.0563,-5.78738 1.01005,-10.36008 3.19767,-13.71571 2.18762,-3.34724 5.82928,-5.05857 10.92495,-5.12917 5.06218,0.0706 8.68588,1.78193 10.86872,5.12917 1.34274,2.06437 2.25942,4.59185 2.75607,7.5765 0.36022,-0.34107 0.72881,-0.67377 1.10459,-0.99808 0.0311,-0.0263 0.0622,-0.0562 0.0921,-0.0826 0.3303,-0.28482 0.67017,-0.56127 1.01124,-0.83292 0.0838,-0.067 0.16634,-0.13643 0.25012,-0.20225 0.29559,-0.23217 0.59956,-0.45475 0.90353,-0.67735 0.13642,-0.10052 0.27285,-0.20464 0.41168,-0.30277 0.25849,-0.1831 0.52177,-0.35782 0.78386,-0.53374 0.19387,-0.12924 0.38654,-0.26208 0.58281,-0.38894 0.22019,-0.14001 0.44397,-0.27405 0.66658,-0.40928 0.24891,-0.15079 0.49544,-0.30278 0.74795,-0.44877 0.1807,-0.10411 0.3674,-0.20345 0.55049,-0.30397 0.30158,-0.16635 0.60435,-0.33149 0.91191,-0.48946 0.14241,-0.073 0.28722,-0.14122 0.43083,-0.21182 0.35542,-0.17592 0.71206,-0.34945 1.07346,-0.5134 0.10532,-0.0478 0.21183,-0.091 0.31834,-0.13763 0.40449,-0.1783 0.81377,-0.35184 1.22545,-0.51459 0.0718,-0.0276 0.14361,-0.0539 0.21541,-0.0814 0.45117,-0.17473 0.90592,-0.34108 1.36547,-0.49665 0.0407,-0.0144 0.0826,-0.0264 0.12447,-0.0407 0.49065,-0.16395 0.9861,-0.31833 1.48633,-0.46073 0.0167,-0.005 0.0323,-0.008 0.049,-0.0132 2.66752,-0.75514 5.46428,-1.19554 8.35318,-1.2817 -6.64305,-22.48772 -27.43506,-38.899665 -52.07456,-38.899665 -29.987693,0 -54.301687,24.312735 -54.301687,54.301565 0,13.93471 5.235702,26.65952 13.860546,36.27045 l -0.02753,0.0287 c 14.711429,17.44115 40.566811,24.22422 57.985231,24.40612 -3.49686,-2.18762 -6.58681,-4.53919 -9.32613,-7.02121 8.14735,-1.23263 15.69872,-4.27591 22.23527,-8.70381 -0.003,-0.003 -0.005,-0.004 -0.006,-0.006 z m -34.37372,-32.42297 v 5.71677 H 81.408504 v -5.0861 l 12.491484,-10.81723 c 2.32764,-1.94947 4.04854,-3.72062 5.169875,-5.31945 1.112957,-1.58926 1.669437,-3.24913 1.659867,-4.97361 0,-1.60361 -0.42963,-2.89847 -1.285286,-3.88458 -0.860449,-0.9873 -2.131382,-1.49591 -3.810392,-1.52463 -1.799886,0.005 -3.220406,0.56605 -4.267545,1.67422 -1.051928,1.11655 -1.659867,2.76205 -1.822625,4.9413 h -7.344336 c 0.205836,-3.71226 1.533011,-6.63347 3.977933,-8.76126 2.444921,-2.12659 5.703623,-3.21082 9.7749,-3.25749 4.034183,0.0515 7.119351,1.04714 9.255521,2.98704 2.13617,1.94467 3.21681,4.55235 3.23477,7.8254 0.005,1.75799 -0.30397,3.34725 -0.92148,4.76298 -0.62231,1.4265 -1.59405,2.85181 -2.92122,4.28668 -1.32718,1.43967 -3.05766,3.06243 -5.184251,4.8671 l -7.614802,6.56286 h 16.277943 z"
         inkscape:connector-curvature="0" />
      <path
         style="fill:#f2f2f2;fill-opacity:1"
         class="svglogo"
         id="path7"
         d="m 134.22864,142.81824 c 0.005,-4.60022 -0.50981,-7.99893 -1.54738,-10.18655 -1.04235,-2.18762 -2.66034,-3.27306 -4.85753,-3.25869 -2.22473,-0.0144 -3.86186,1.07107 -4.90899,3.25869 -1.04715,2.18762 -1.56653,5.58633 -1.55695,10.18655 -0.01,4.56194 0.5098,7.94628 1.55695,10.15305 1.04713,2.21155 2.68306,3.30536 4.90899,3.291 1.41693,0.01 2.58733,-0.44877 3.52198,-1.36307 0.13403,-0.66898 0.2932,-1.32956 0.46552,-1.98417 0.0371,-0.14003 0.0778,-0.27645 0.11609,-0.41647 0.13881,-0.49904 0.28721,-0.99448 0.44638,-1.48394 0.0598,-0.1819 0.11847,-0.36261 0.17951,-0.54332 0.16874,-0.48467 0.34585,-0.96456 0.53374,-1.43847 0.055,-0.13881 0.10531,-0.28003 0.16156,-0.41885 0.24055,-0.5852 0.49784,-1.16322 0.76949,-1.73167 0.0204,-0.0406 0.0348,-0.0838 0.055,-0.12446 0.10052,-1.20032 0.15677,-2.50475 0.15558,-3.93963 z"
         inkscape:connector-curvature="0" />
      <path
         style="fill:#f2f2f2;fill-opacity:1"
         class="svglogo"
         id="path19"
         d="m 174.87562,153.48109 c -1.17759,-0.0239 -2.05718,0.56965 -2.6364,1.77117 -0.57922,1.21109 -0.87003,3.17013 -0.86045,5.88551 -0.01,2.69263 0.28003,4.64689 0.86045,5.86277 0.57922,1.21468 1.45881,1.81305 2.6364,1.79509 1.17758,0.0179 2.05717,-0.58041 2.63639,-1.79509 0.57444,-1.21588 0.86045,-3.17014 0.86524,-5.86277 -0.005,-2.71538 -0.28961,-4.67442 -0.86524,-5.88551 -0.57922,-1.20152 -1.45881,-1.7951 -2.63639,-1.77117 z"
         inkscape:connector-curvature="0" />
      <path
         style="fill:#f2f2f2;fill-opacity:1"
         class="svglogo"
         id="path21"
         d="m 194.16333,161.70382 c 0,-16.0254 -12.99052,-29.01589 -29.01595,-29.01589 -16.02543,0 -29.01594,12.99049 -29.01594,29.01589 0,14.5941 10.78973,26.66431 24.81781,28.70712 -1.42531,1.27212 -3.01935,2.47365 -4.81923,3.59977 8.20359,-0.0838 18.35786,-2.37072 27.3848,-9.8455 0.15916,-0.13043 0.31354,-0.25609 0.46792,-0.38774 0.22499,-0.19147 0.44878,-0.3973 0.67376,-0.59836 0.76231,-0.67376 1.51506,-1.36427 2.25345,-2.12179 l -0.10292,-0.0802 c 4.56553,-5.12799 7.3563,-11.86916 7.3563,-19.27332 z m -31.50275,6.43242 v 3.87021 H 146.2845 v -3.49683 l 7.20792,-6.04827 c 1.41693,-1.15006 2.46886,-2.20199 3.16056,-3.15099 0.68693,-0.93943 1.03278,-1.92673 1.03278,-2.9643 0,-0.88797 -0.23336,-1.59883 -0.70128,-2.12179 -0.46792,-0.52417 -1.15963,-0.78984 -2.07034,-0.80421 -0.95859,0.005 -1.71612,0.31354 -2.27619,0.92028 -0.56127,0.61751 -0.88797,1.539 -0.97294,2.76326 h -4.97362 c 0.13044,-2.31448 0.94901,-4.11316 2.45929,-5.39007 1.51027,-1.27572 3.50642,-1.92075 5.98365,-1.94469 2.48681,0.0239 4.39441,0.61752 5.72637,1.78552 1.33195,1.17399 2.00571,2.79078 2.02007,4.85752 0.005,1.05672 -0.17711,2.01051 -0.5469,2.86138 -0.37458,0.85446 -0.95858,1.71013 -1.75321,2.561 -0.79942,0.85566 -1.83698,1.80946 -3.1139,2.86617 l -4.12752,3.43581 h 9.32134 z m 18.8904,1.28049 c -1.37385,1.98658 -3.59976,2.99183 -6.67536,3.02893 -3.09476,-0.0371 -5.32426,-1.04235 -6.68495,-3.02893 -1.37025,-1.98178 -2.03804,-4.74502 -2.00572,-8.27896 -0.0323,-3.55668 0.63547,-6.31993 2.00572,-8.29692 1.36069,-1.97341 3.59019,-2.97866 6.68495,-3.01097 3.0756,0.0323 5.30151,1.03756 6.67536,3.01097 1.37026,1.97699 2.04282,4.74024 2.02008,8.29692 0.0227,3.53394 -0.64982,6.29718 -2.02008,8.27896 z"
         inkscape:connector-curvature="0" />
    </g>
  </g>
</svg>
